<?xml version="1.0" encoding="UTF-8" standalone="no"?>
<svg
   xmlns:dc="http://purl.org/dc/elements/1.1/"
   xmlns:cc="http://creativecommons.org/ns#"
   xmlns:rdf="http://www.w3.org/1999/02/22-rdf-syntax-ns#"
   xmlns:svg="http://www.w3.org/2000/svg"
   xmlns="http://www.w3.org/2000/svg"
   xmlns:sodipodi="http://sodipodi.sourceforge.net/DTD/sodipodi-0.dtd"
   xmlns:inkscape="http://www.inkscape.org/namespaces/inkscape"
   width="100mm"
   height="100mm"
   viewBox="0 0 100 100"
   version="1.1"
   id="svg8"
   inkscape:version="1.0.1 (3bc2e813f5, 2020-09-07)"
   sodipodi:docname="screengraphic.svg">
  <defs
     id="defs2" />
  <sodipodi:namedview
     id="base"
     pagecolor="#ffffff"
     bordercolor="#666666"
     borderopacity="1.0"
     inkscape:pageopacity="0.0"
     inkscape:pageshadow="2"
     inkscape:zoom="0.7"
     inkscape:cx="374.49552"
     inkscape:cy="351.89962"
     inkscape:document-units="mm"
     inkscape:current-layer="g51"
     inkscape:document-rotation="0"
     showgrid="false"
     inkscape:window-width="1920"
     inkscape:window-height="1001"
     inkscape:window-x="3191"
     inkscape:window-y="337"
     inkscape:window-maximized="1" />
  <metadata
     id="metadata5">
    <rdf:RDF>
      <cc:Work
         rdf:about="">
        <dc:format>image/svg+xml</dc:format>
        <dc:type
           rdf:resource="http://purl.org/dc/dcmitype/StillImage" />
        <dc:title></dc:title>
      </cc:Work>
    </rdf:RDF>
  </metadata>
  <g
     inkscape:label="Layer 1"
     inkscape:groupmode="layer"
     id="layer1">
    <g
       id="g51"
       transform="matrix(0.26458333,0,0,0.26458333,74.911204,146.14335)">
      <g
         id="g32"
         style="fill:none;stroke:#000000"
         transform="matrix(3.9630822,0,0,3.9630822,-317.22508,-561.52186)">
        <path
           d="m 45.75,84.056 c 1.685,0 3.197,-0.732 4.25,-1.891 1.053,1.158 2.565,1.891 4.25,1.891 3.172,0 5.752,-2.58 5.752,-5.75 0,-0.829 -0.672,-1.5 -1.5,-1.5 -0.828,0 -1.5,0.671 -1.5,1.5 0,1.517 -1.234,2.75 -2.752,2.75 -1.517,0 -2.75,-1.234 -2.75,-2.75 v -4.751 l 4.67,-2.029 c 0.76,-0.33 1.108,-1.214 0.778,-1.974 -0.331,-0.759 -1.214,-1.107 -1.974,-0.778 L 50,70.935 45.027,68.774 c -0.759,-0.332 -1.643,0.018 -1.974,0.778 -0.33,0.76 0.019,1.643 0.778,1.973 l 4.668,2.029 v 4.752 c 0,1.517 -1.233,2.75 -2.75,2.75 -1.517,0 -2.749,-1.234 -2.749,-2.75 0,-0.829 -0.672,-1.5 -1.5,-1.5 -0.828,0 -1.5,0.671 -1.5,1.5 0,3.171 2.579,5.75 5.75,5.75 z"
           id="path28"
           style="fill:none;stroke:#000000" />
        <path
           d="M 88.446,4.634 C 88.228,4.206 87.818,3.908 87.344,3.833 86.866,3.758 86.388,3.914 86.048,4.254 l -11.65,11.65 C 73.86,15.446 73.258,15.043 72.585,14.725 70.318,13.658 67.535,13.648 65.284,14.649 64.149,12.607 62.04,11.123 59.507,10.691 59.489,10.688 59.471,10.685 59.453,10.683 56.996,10.275 54.462,10.945 52.634,12.414 50.999,10.74 48.636,9.8 46.055,9.947 c -2.535,0.146 -4.81,1.36 -6.215,3.224 -2.021,-1.238 -4.654,-1.602 -7.018,-0.906 -0.038,0.008 -0.076,0.019 -0.114,0.03 -2.443,0.754 -4.283,2.469 -5.101,4.613 L 13.951,3.253 c -0.339,-0.34 -0.82,-0.496 -1.295,-0.421 -0.475,0.075 -0.885,0.373 -1.103,0.801 -0.257,0.505 -6.008,12.104 1.056,23.476 -0.816,0.741 -1.478,1.635 -1.898,2.654 -1.115,2.701 -0.425,5.696 1.618,7.745 -2.025,2.058 -2.699,5.053 -1.573,7.749 1.057,2.52 3.54,4.314 6.395,4.721 -0.082,0.84 0.004,1.68 0.221,2.49 -0.002,0.017 -0.008,0.033 -0.01,0.05 -0.836,9.266 -0.731,18.085 0.317,26.961 0.007,0.063 0.019,0.125 0.034,0.187 1.761,7.066 9.504,14.81 16.571,16.571 0.062,0.015 0.123,0.027 0.187,0.034 5.144,0.607 10.324,0.911 15.504,0.911 5.18,0 10.36,-0.304 15.504,-0.911 0.063,-0.007 0.125,-0.019 0.187,-0.034 7.067,-1.761 14.811,-9.504 16.571,-16.571 0.016,-0.062 0.027,-0.124 0.034,-0.187 1.062,-8.995 1.206,-17.666 0.45,-26.485 0.543,-0.375 1.038,-0.815 1.47,-1.315 1.892,-2.185 2.284,-5.063 1.174,-7.533 2.671,-1.261 4.458,-3.833 4.458,-6.691 0,-0.003 0,-0.114 0,-0.117 C 89.805,34.542 88.072,32.035 85.485,30.759 95.371,18.642 88.52,4.779 88.446,4.634 Z M 13.423,6.967 23.428,16.971 c -1.172,0.24 -2.277,0.695 -3.249,1.392 -2.221,1.597 -3.349,4.14 -3.094,6.646 -0.664,0.097 -1.305,0.276 -1.914,0.516 -4.624,-7.456 -2.96,-15.057 -1.748,-18.558 z m 65.88,72.064 c -1.539,5.975 -8.298,12.733 -14.273,14.273 -9.99,1.172 -20.119,1.172 -30.109,0 -5.976,-1.54 -12.734,-8.298 -14.273,-14.273 -0.876,-7.459 -1.064,-14.882 -0.575,-22.58 0.066,0.051 0.125,0.109 0.193,0.158 1.447,1.034 3.18,1.58 5.012,1.58 0.798,0 1.588,-0.107 2.345,-0.314 0.79,2.223 2.676,4.002 5.184,4.767 0.899,0.275 1.84,0.396 2.771,0.375 v 17.97 c 0,4.687 3.813,8.5 8.5,8.5 h 11.85 c 4.687,0 8.5,-3.813 8.5,-8.5 V 61.565 c 0.363,-0.411 0.686,-0.855 0.949,-1.333 2.257,0.998 5.036,0.983 7.298,-0.089 2.403,-1.138 3.995,-3.278 4.35,-5.663 0.946,0.081 1.887,-10e-4 2.787,-0.212 0.638,8.232 0.478,16.353 -0.509,24.763 z M 38.576,62.414 c 0.472,-0.182 0.929,-0.395 1.354,-0.656 1.408,1.863 3.685,3.072 6.211,3.21 0.17,0.011 0.341,0.015 0.509,0.015 2.357,0 4.55,-0.923 6.076,-2.492 1.844,1.475 4.396,2.142 6.876,1.715 0.638,-0.111 1.248,-0.288 1.823,-0.524 v 17.304 c 0,3.033 -2.468,5.5 -5.5,5.5 h -11.85 c -3.032,0 -5.5,-2.467 -5.5,-5.5 V 62.414 Z M 86.822,37.456 c 0,2.091 -1.695,3.942 -4.031,4.401 -0.523,0.103 -0.953,0.476 -1.128,0.98 -0.175,0.504 -0.069,1.063 0.278,1.468 1.367,1.593 1.359,3.818 -0.021,5.412 -0.984,1.141 -2.487,1.795 -4.124,1.795 -0.616,0 -1.221,-0.095 -1.796,-0.282 -0.497,-0.161 -1.037,-0.053 -1.434,0.283 -0.397,0.336 -0.591,0.854 -0.514,1.368 0.277,1.835 -0.794,3.664 -2.665,4.55 -1.881,0.892 -4.259,0.647 -5.865,-0.568 -0.406,-0.309 -0.94,-0.388 -1.417,-0.215 -0.478,0.173 -0.836,0.577 -0.95,1.072 -0.415,1.788 -2.012,3.174 -4.065,3.531 -2.052,0.353 -4.164,-0.427 -5.315,-1.945 -0.305,-0.401 -0.775,-0.631 -1.294,-0.59 -0.503,0.033 -0.956,0.317 -1.205,0.755 -0.868,1.526 -2.684,2.512 -4.626,2.512 -0.105,0 -0.212,-0.002 -0.332,-0.01 -2.079,-0.114 -3.868,-1.299 -4.56,-3.02 -0.188,-0.469 -0.6,-0.812 -1.096,-0.912 -0.099,-0.02 -0.197,-0.029 -0.296,-0.029 -0.396,0 -0.782,0.158 -1.067,0.446 -1.365,1.382 -3.625,1.925 -5.618,1.314 -1.997,-0.609 -3.356,-2.191 -3.462,-4.031 -0.029,-0.513 -0.318,-0.975 -0.768,-1.225 -0.448,-0.25 -0.993,-0.253 -1.445,-0.008 -1.833,0.996 -4.311,0.865 -5.998,-0.342 -1.707,-1.22 -2.342,-3.249 -1.579,-5.048 0.206,-0.486 0.142,-1.044 -0.169,-1.47 -0.312,-0.426 -0.817,-0.662 -1.349,-0.609 -2.36,0.212 -4.585,-1.024 -5.39,-2.942 -0.82,-1.963 0.003,-4.142 2,-5.298 0.465,-0.269 0.75,-0.766 0.749,-1.302 -0.001,-0.536 -0.29,-1.032 -0.756,-1.298 -2.009,-1.148 -2.844,-3.324 -2.031,-5.291 0.796,-1.929 3.021,-3.175 5.373,-2.971 0.538,0.052 1.037,-0.188 1.346,-0.614 0.31,-0.427 0.372,-0.985 0.164,-1.47 -0.77,-1.798 -0.141,-3.83 1.562,-5.055 0.939,-0.673 2.074,-1.029 3.282,-1.029 0.964,0 1.905,0.232 2.724,0.672 0.453,0.244 0.998,0.238 1.445,-0.014 0.447,-0.252 0.735,-0.715 0.763,-1.228 0.097,-1.809 1.411,-3.374 3.358,-4.009 0.03,-0.007 0.061,-0.016 0.091,-0.025 1.99,-0.613 4.256,-0.074 5.622,1.305 0.354,0.358 0.869,0.515 1.363,0.415 0.496,-0.101 0.907,-0.444 1.095,-0.913 0.688,-1.721 2.477,-2.91 4.553,-3.03 2.076,-0.112 4.047,0.886 4.965,2.496 0.25,0.438 0.703,0.721 1.207,0.753 0.501,0.027 0.989,-0.19 1.293,-0.593 1.147,-1.52 3.258,-2.301 5.304,-1.95 0.017,0.003 0.033,0.005 0.05,0.008 2.031,0.362 3.612,1.737 4.032,3.514 0.117,0.495 0.477,0.896 0.956,1.067 0.478,0.171 1.012,0.088 1.416,-0.221 1.581,-1.211 3.983,-1.459 5.859,-0.577 1.87,0.881 2.944,2.706 2.673,4.541 -0.076,0.515 0.119,1.032 0.517,1.367 0.398,0.335 0.942,0.442 1.436,0.278 0.579,-0.19 1.188,-0.287 1.811,-0.287 1.628,0 3.128,0.65 4.116,1.784 1.166,1.336 1.351,3.118 0.573,4.602 -0.189,0.21 -0.381,0.421 -0.582,0.63 -0.575,0.597 -0.558,1.546 0.039,2.121 0.021,0.021 0.051,0.028 0.073,0.047 0.213,0.225 0.484,0.391 0.799,0.451 2.341,0.449 4.049,2.293 4.061,4.483 z M 85.468,25.424 c -0.302,-0.804 -0.74,-1.577 -1.349,-2.274 -1.724,-1.979 -4.446,-3.022 -7.176,-2.777 -0.11,-0.729 -0.35,-1.431 -0.68,-2.092 l 10.3,-10.299 c 1.126,3.338 2.666,10.399 -1.095,17.442 z"
           id="path30"
           style="fill:none;stroke:#000000" />
      </g>
    </g>
  </g>
</svg>
